<svg width="312" height="72" viewBox="0 0 312 72" fill="none" xmlns="http://www.w3.org/2000/svg" role="img" aria-label="Future Consumer Expo 2026">
  <rect x="2" y="8" width="56" height="56" rx="14" fill="#0B6BFF"/>
  <path d="M18 24.5C18 20.9 20.9 18 24.5 18H45V27H27.5C26.7 27 26 27.7 26 28.5V44H18V24.5Z" fill="white"/>
  <path d="M28.5 34H49V43H31.5C30.7 43 30 43.7 30 44.5V54H22V40.5C22 36.9 24.9 34 28.5 34Z" fill="white" opacity="0.92"/>
  <path d="M67 22.4H78.8V25.3H70.5V29.1H77.9V32H70.5V38H67V22.4ZM82.8 32.1V22.4H86.3V31.9C86.3 34.2 87.6 35.4 89.6 35.4C91.6 35.4 92.9 34.3 92.9 32V22.4H96.4V31.9C96.4 36.5 93.8 38.3 89.5 38.3C85.3 38.3 82.8 36.4 82.8 32.1ZM105.2 25.5H100.4V22.4H113.5V25.5H108.7V38H105.2V25.5ZM117.5 32.1V22.4H121V31.9C121 34.2 122.3 35.4 124.3 35.4C126.3 35.4 127.6 34.3 127.6 32V22.4H131.1V31.9C131.1 36.5 128.5 38.3 124.2 38.3C120 38.3 117.5 36.4 117.5 32.1ZM136.6 22.4H143.8C145.8 22.4 147.3 22.9 148.3 23.9C149.2 24.8 149.7 26 149.7 27.5V27.6C149.7 30.1 148.3 31.7 146.4 32.5L150.2 38H146.1L142.8 33.1H140.1V38H136.6V22.4ZM143.6 30.1C145.3 30.1 146.2 29.2 146.2 27.9V27.8C146.2 26.3 145.2 25.6 143.5 25.6H140.1V30.1H143.6ZM154.7 22.4H166.5V25.5H158.2V28.7H165.5V31.8H158.2V35H166.6V38H154.7V22.4Z" fill="#081326"/>
  <path d="M67 45.8C67 41.3 70.4 37.7 75.2 37.7C78.1 37.7 79.9 38.7 81.4 40.1L79.2 42.6C77.9 41.4 76.8 40.8 75.2 40.8C72.6 40.8 70.7 43 70.7 45.7V45.8C70.7 48.5 72.5 50.7 75.2 50.7C77 50.7 78.1 50 79.3 48.9L81.5 51.1C79.9 52.9 78 53.8 75.1 53.8C70.5 53.8 67 50.3 67 45.8ZM85.2 45.8C85.2 41.4 88.7 37.7 93.5 37.7C98.3 37.7 101.7 41.3 101.7 45.7V45.8C101.7 50.2 98.2 53.9 93.4 53.9C88.6 53.9 85.2 50.3 85.2 45.8ZM98.1 45.8C98.1 43.1 96.1 40.8 93.4 40.8C90.7 40.8 88.8 43 88.8 45.7V45.8C88.8 48.5 90.8 50.7 93.5 50.7C96.2 50.7 98.1 48.5 98.1 45.8ZM106.5 38H109.7L117.1 47.8V38H120.5V53.6H117.6L109.9 43.5V53.6H106.5V38ZM125.3 51.3L127.4 48.8C128.8 49.9 130.3 50.7 132.1 50.7C133.6 50.7 134.4 50.1 134.4 49.2V49.1C134.4 48.2 133.8 47.7 131.1 47C127.9 46.2 125.9 45.3 125.9 42.3V42.2C125.9 39.4 128.2 37.6 131.3 37.6C133.6 37.6 135.5 38.3 137.1 39.6L135.3 42.2C133.9 41.2 132.5 40.6 131.2 40.6C129.9 40.6 129.2 41.2 129.2 42V42.1C129.2 43.2 129.9 43.5 132.8 44.2C136 45.1 137.8 46.2 137.8 48.9V49C137.8 52 135.5 53.8 132.1 53.8C129.7 53.8 127.3 53 125.3 51.3ZM142.4 46.9V38H145.9V46.8C145.9 49.4 147.2 50.7 149.3 50.7C151.4 50.7 152.7 49.4 152.7 46.9V38H156.2V46.8C156.2 51.6 153.5 53.8 149.2 53.8C145 53.8 142.4 51.5 142.4 46.9ZM161.6 38H165.3L169.4 44.6L173.5 38H177.2V53.6H173.8V43.5L169.4 50.2H169.3L164.9 43.6V53.6H161.6V38ZM182.8 38H194.6V41H186.2V44.2H193.6V47.2H186.2V50.5H194.7V53.6H182.8V38ZM199.8 38H207C209 38 210.5 38.6 211.5 39.5C212.4 40.4 212.9 41.6 212.9 43.1V43.2C212.9 45.7 211.5 47.3 209.6 48.1L213.4 53.6H209.3L206 48.7H203.3V53.6H199.8V38Z" fill="#0B6BFF"/>
  <path d="M226 38H239.1V41.1H229.5V44.3H238V47.4H229.5V50.5H239.3V53.6H226V38ZM244.7 38H248.5L252 43.4L255.6 38H259.3L253.9 45.6L259.5 53.6H255.7L251.9 47.8L248.1 53.6H244.4L250 45.7L244.7 38ZM264.6 38H271C274.8 38 277.2 40.2 277.2 43.4V43.5C277.2 47.1 274.4 49 270.7 49H268.1V53.6H264.6V38ZM270.8 45.9C272.6 45.9 273.6 44.9 273.6 43.6V43.5C273.6 42 272.6 41.2 270.7 41.2H268.1V45.9H270.8ZM281 45.8C281 41.4 284.5 37.7 289.3 37.7C294.1 37.7 297.5 41.3 297.5 45.7V45.8C297.5 50.2 294 53.9 289.2 53.9C284.4 53.9 281 50.3 281 45.8ZM293.9 45.8C293.9 43.1 291.9 40.8 289.2 40.8C286.5 40.8 284.6 43 284.6 45.7V45.8C284.6 48.5 286.6 50.7 289.3 50.7C292 50.7 293.9 48.5 293.9 45.8Z" fill="#081326"/>
</svg>
